<svg xmlns="http://www.w3.org/2000/svg" viewBox="0 0 32 32">
  <!-- 배경 -->
  <rect width="32" height="32" rx="6" fill="#3B82F6"/>

  <!-- 렌치 아이콘 -->
  <g transform="translate(16, 16) rotate(-45) translate(-16, -16)">
    <path d="M 16 6
             C 12 6, 9 9, 9 13
             C 9 14, 9.2 15, 9.5 15.8
             L 16 22.5
             L 22.5 15.8
             C 22.8 15, 23 14, 23 13
             C 23 9, 20 6, 16 6
             Z
             M 16 10
             C 17.5 10, 19 11.5, 19 13
             C 19 14.5, 17.5 16, 16 16
             C 14.5 16, 13 14.5, 13 13
             C 13 11.5, 14.5 10, 16 10
             Z"
          fill="white"/>
    <!-- 손잡이 -->
    <rect x="14.5" y="21" width="3" height="5" rx="1.5" fill="white"/>
  </g>
</svg>